<?xml version="1.0" encoding="UTF-8"?>
<svg xmlns="http://www.w3.org/2000/svg" xmlns:xlink="http://www.w3.org/1999/xlink" width="130" height="130" viewBox="0 0 130 130">
<defs>
<g>
<g id="glyph-0-0">
<path d="M 2.390625 -3.921875 C 2.9375 -3.703125 3.53125 -3.703125 3.859375 -3.703125 C 4.3125 -3.703125 5.203125 -3.703125 5.203125 -4.203125 C 5.203125 -4.515625 4.875 -4.625 4 -4.625 C 3.5625 -4.625 3.046875 -4.578125 2.4375 -4.328125 C 1.90625 -4.578125 1.703125 -4.96875 1.703125 -5.359375 C 1.703125 -6.421875 3.390625 -7.046875 4.921875 -7.046875 C 5.21875 -7.046875 5.84375 -7.046875 6.5625 -6.515625 C 6.65625 -6.4375 6.71875 -6.390625 6.828125 -6.390625 C 7.046875 -6.390625 7.265625 -6.609375 7.265625 -6.8125 C 7.265625 -7.125 6.265625 -7.78125 5.078125 -7.78125 C 3.15625 -7.78125 1.328125 -6.625 1.328125 -5.359375 C 1.328125 -4.71875 1.734375 -4.328125 2.03125 -4.109375 C 1.03125 -3.546875 0.453125 -2.625 0.453125 -1.78125 C 0.453125 -0.578125 1.515625 0.359375 3.171875 0.359375 C 5.4375 0.359375 6.359375 -1.15625 6.359375 -1.390625 C 6.359375 -1.484375 6.28125 -1.546875 6.203125 -1.546875 C 6.109375 -1.546875 6.078125 -1.5 6.015625 -1.390625 C 5.8125 -1.0625 5.375 -0.375 3.328125 -0.375 C 2.25 -0.375 0.84375 -0.65625 0.84375 -1.875 C 0.84375 -2.46875 1.28125 -3.34375 2.390625 -3.921875 Z M 2.921875 -4.125 C 3.390625 -4.28125 3.84375 -4.28125 3.953125 -4.28125 C 4.4375 -4.28125 4.53125 -4.25 4.796875 -4.1875 C 4.515625 -4.046875 4.484375 -4.046875 3.859375 -4.046875 C 3.546875 -4.046875 3.265625 -4.046875 2.921875 -4.125 Z M 2.921875 -4.125 "/>
</g>
<g id="glyph-1-0">
<path d="M 4.484375 -7.5 C 2.265625 -6.96875 0.6875 -4.6875 0.6875 -2.671875 C 0.6875 -0.828125 1.921875 0.203125 3.3125 0.203125 C 5.34375 0.203125 6.71875 -2.578125 6.71875 -4.875 C 6.71875 -6.421875 5.984375 -7.375 5.5625 -7.9375 C 4.921875 -8.75 3.890625 -10.078125 3.890625 -10.90625 C 3.890625 -11.1875 4.109375 -11.703125 4.875 -11.703125 C 5.40625 -11.703125 5.734375 -11.515625 6.25 -11.234375 C 6.40625 -11.125 6.796875 -10.90625 7.03125 -10.90625 C 7.390625 -10.90625 7.640625 -11.265625 7.640625 -11.53125 C 7.640625 -11.859375 7.390625 -11.921875 6.78125 -12.046875 C 5.96875 -12.21875 5.734375 -12.21875 5.4375 -12.21875 C 5.140625 -12.21875 3.46875 -12.21875 3.46875 -10.46875 C 3.46875 -9.625 3.890625 -8.640625 4.484375 -7.5 Z M 4.671875 -7.1875 C 5.328125 -5.8125 5.578125 -5.296875 5.578125 -4.1875 C 5.578125 -2.84375 4.859375 -0.140625 3.328125 -0.140625 C 2.65625 -0.140625 1.6875 -0.578125 1.6875 -2.1875 C 1.6875 -3.3125 2.328125 -6.5625 4.671875 -7.1875 Z M 4.671875 -7.1875 "/>
</g>
</g>
<clipPath id="clip-0">
<path clip-rule="nonzero" d="M 13 53.589844 L 20.886719 53.589844 L 20.886719 61 L 13 61 Z M 13 53.589844 "/>
</clipPath>
<clipPath id="clip-1">
<path clip-rule="nonzero" d="M 57 41.046875 L 65 41.046875 L 65 53 L 57 53 Z M 57 41.046875 "/>
</clipPath>
</defs>
<path fill="none" stroke-width="2" stroke-linecap="butt" stroke-linejoin="round" stroke="rgb(100%, 54.9%, 0%)" stroke-opacity="1" stroke-miterlimit="10" d="M 204.84375 736 C 204.84375 751.929688 191.929688 764.84375 176 764.84375 C 160.070313 764.84375 147.15625 751.929688 147.15625 736 C 147.15625 720.070313 160.070313 707.15625 176 707.15625 C 191.929688 707.15625 204.84375 720.070313 204.84375 736 Z M 204.84375 736 " transform="matrix(1, 0, 0, -1, -111, 801)"/>
<path fill="none" stroke-width="2" stroke-linecap="butt" stroke-linejoin="round" stroke="rgb(64.7%, 16.5%, 16.5%)" stroke-opacity="1" stroke-miterlimit="10" d="M 238.609375 736 C 238.609375 770.578125 210.578125 798.609375 176 798.609375 C 141.421875 798.609375 113.390625 770.578125 113.390625 736 C 113.390625 701.421875 141.421875 673.390625 176 673.390625 C 210.578125 673.390625 238.609375 701.421875 238.609375 736 Z M 238.609375 736 " transform="matrix(1, 0, 0, -1, -111, 801)"/>
<g clip-path="url(#clip-0)">
<g fill="rgb(64.7%, 16.5%, 16.5%)" fill-opacity="1">
<use xlink:href="#glyph-0-0" x="13" y="61"/>
</g>
</g>
<g clip-path="url(#clip-1)">
<g fill="rgb(100%, 64.7%, 0%)" fill-opacity="1">
<use xlink:href="#glyph-1-0" x="57" y="53"/>
</g>
</g>
<path fill="none" stroke-width="0.8" stroke-linecap="butt" stroke-linejoin="round" stroke="rgb(64.7%, 16.5%, 16.5%)" stroke-opacity="1" stroke-dasharray="4" stroke-miterlimit="10" d="M 112 736 L 176 736 " transform="matrix(1, 0, 0, -1, -111, 801)"/>
<path fill="none" stroke-width="0.8" stroke-linecap="butt" stroke-linejoin="round" stroke="rgb(100%, 64.7%, 0%)" stroke-opacity="1" stroke-dasharray="4" stroke-miterlimit="10" d="M 176 736 L 156 756 " transform="matrix(1, 0, 0, -1, -111, 801)"/>
<path fill="none" stroke-width="1.2" stroke-linecap="butt" stroke-linejoin="round" stroke="rgb(93.3%, 51%, 93.3%)" stroke-opacity="1" stroke-miterlimit="10" d="M 188 748 C 192 756 198 758 203 758.332031 C 208 758.667969 212 757.332031 215.332031 752.667969 C 218.667969 748 221.332031 740 220.667969 732.667969 C 220 725.332031 216 718.667969 212.667969 715.332031 C 209.332031 712 206.667969 712 202.667969 713.332031 C 198.667969 714.667969 193.332031 717.332031 189.332031 719.332031 C 185.332031 721.332031 182.667969 722.667969 179.332031 722.667969 C 176 722.667969 172 721.332031 168.667969 719.332031 C 165.332031 717.332031 162.667969 714.667969 159.332031 712.667969 C 156 710.667969 152 709.332031 146 709.667969 C 140 710 132 712 128 720 " transform="matrix(1, 0, 0, -1, -111, 801)"/>
<path fill-rule="evenodd" fill="rgb(93.3%, 51%, 93.3%)" fill-opacity="1" stroke-width="1.2" stroke-linecap="butt" stroke-linejoin="round" stroke="rgb(93.3%, 51%, 93.3%)" stroke-opacity="1" stroke-miterlimit="10" d="M 128 720 L 129.046875 712.695313 L 133.214844 714.78125 Z M 128 720 " transform="matrix(1, 0, 0, -1, -111, 801)"/>
</svg>
