<?xml version="1.0" encoding="UTF-8"?>
<svg xmlns="http://www.w3.org/2000/svg" xmlns:xlink="http://www.w3.org/1999/xlink" width="149" height="78" viewBox="0 0 149 78">
<defs>
<g>
<g id="glyph-0-0">
<path d="M 4.484375 -7.5 C 2.265625 -6.96875 0.6875 -4.6875 0.6875 -2.671875 C 0.6875 -0.828125 1.921875 0.203125 3.3125 0.203125 C 5.34375 0.203125 6.71875 -2.578125 6.71875 -4.875 C 6.71875 -6.421875 5.984375 -7.375 5.5625 -7.9375 C 4.921875 -8.75 3.890625 -10.078125 3.890625 -10.90625 C 3.890625 -11.1875 4.109375 -11.703125 4.875 -11.703125 C 5.40625 -11.703125 5.734375 -11.515625 6.25 -11.234375 C 6.40625 -11.125 6.796875 -10.90625 7.03125 -10.90625 C 7.390625 -10.90625 7.640625 -11.265625 7.640625 -11.53125 C 7.640625 -11.859375 7.390625 -11.921875 6.78125 -12.046875 C 5.96875 -12.21875 5.734375 -12.21875 5.4375 -12.21875 C 5.140625 -12.21875 3.46875 -12.21875 3.46875 -10.46875 C 3.46875 -9.625 3.890625 -8.640625 4.484375 -7.5 Z M 4.671875 -7.1875 C 5.328125 -5.8125 5.578125 -5.296875 5.578125 -4.1875 C 5.578125 -2.84375 4.859375 -0.140625 3.328125 -0.140625 C 2.65625 -0.140625 1.6875 -0.578125 1.6875 -2.1875 C 1.6875 -3.3125 2.328125 -6.5625 4.671875 -7.1875 Z M 4.671875 -7.1875 "/>
</g>
</g>
<clipPath id="clip-0">
<path clip-rule="nonzero" d="M 94 7.046875 L 102 7.046875 L 102 19 L 94 19 Z M 94 7.046875 "/>
</clipPath>
</defs>
<path fill="none" stroke-width="2" stroke-linecap="butt" stroke-linejoin="round" stroke="rgb(100%, 54.9%, 0%)" stroke-opacity="1" stroke-miterlimit="10" d="M 204.84375 736 C 204.84375 751.929688 191.929688 764.84375 176 764.84375 C 160.070313 764.84375 147.15625 751.929688 147.15625 736 C 147.15625 720.070313 160.070313 707.15625 176 707.15625 C 191.929688 707.15625 204.84375 720.070313 204.84375 736 Z M 204.84375 736 " transform="matrix(1, 0, 0, -1, -74, 767)"/>
<g clip-path="url(#clip-0)">
<g fill="rgb(100%, 64.7%, 0%)" fill-opacity="1">
<use xlink:href="#glyph-0-0" x="94" y="19"/>
</g>
</g>
<path fill="none" stroke-width="0.8" stroke-linecap="butt" stroke-linejoin="round" stroke="rgb(100%, 64.7%, 0%)" stroke-opacity="1" stroke-dasharray="4" stroke-miterlimit="10" d="M 176 736 L 156 756 " transform="matrix(1, 0, 0, -1, -74, 767)"/>
<path fill="none" stroke-width="1.2" stroke-linecap="butt" stroke-linejoin="round" stroke="rgb(93.3%, 51%, 93.3%)" stroke-opacity="1" stroke-miterlimit="10" d="M 184 748 C 208 744 214 738 217.667969 733 C 221.332031 728 222.667969 724 221.332031 719.332031 C 220 714.667969 216 709.332031 208 704 C 200 698.667969 188 693.332031 177.332031 691.332031 C 166.667969 689.332031 157.332031 690.667969 146.667969 694.667969 C 136 698.667969 124 705.332031 112 712.667969 C 100 720 88 728 76 740 " transform="matrix(1, 0, 0, -1, -74, 767)"/>
<path fill-rule="evenodd" fill="rgb(93.3%, 51%, 93.3%)" fill-opacity="1" stroke-width="1.2" stroke-linecap="butt" stroke-linejoin="round" stroke="rgb(93.3%, 51%, 93.3%)" stroke-opacity="1" stroke-miterlimit="10" d="M 76 740 L 79.300781 733.402344 L 82.597656 736.699219 Z M 76 740 " transform="matrix(1, 0, 0, -1, -74, 767)"/>
</svg>
